<?xml version="1.0" encoding="utf-8" standalone="no"?>
<!DOCTYPE svg PUBLIC "-//W3C//DTD SVG 1.1//EN"
  "http://www.w3.org/Graphics/SVG/1.1/DTD/svg11.dtd">
<!-- Created with matplotlib (https://matplotlib.org/) -->
<svg height="288pt" version="1.1" viewBox="0 0 432 288" width="432pt" xmlns="http://www.w3.org/2000/svg" xmlns:xlink="http://www.w3.org/1999/xlink">
 <defs>
  <style type="text/css">
*{stroke-linecap:butt;stroke-linejoin:round;}
  </style>
 </defs>
 <g id="figure_1">
  <g id="patch_1">
   <path d="M 0 288 
L 432 288 
L 432 0 
L 0 0 
z
" style="fill:#ffffff;"/>
  </g>
  <g id="axes_1">
   <g id="patch_2">
    <path d="M 54.885 219.875665 
L 414.438937 219.875665 
L 414.438937 45.040625 
L 54.885 45.040625 
z
" style="fill:#ffffff;"/>
   </g>
   <g id="matplotlib.axis_1">
    <g id="xtick_1">
     <g id="line2d_1">
      <path clip-path="url(#p44d700ec0b)" d="M 68.131724 219.875665 
L 68.131724 45.040625 
" style="fill:none;stroke:#b0b0b0;stroke-linecap:square;stroke-width:0.8;"/>
     </g>
     <g id="line2d_2">
      <defs>
       <path d="M 0 0 
L 0 3.5 
" id="m4c6c9d142a" style="stroke:#000000;stroke-width:0.8;"/>
      </defs>
      <g>
       <use style="stroke:#000000;stroke-width:0.8;" x="68.131724" xlink:href="#m4c6c9d142a" y="219.875665"/>
      </g>
     </g>
     <g id="text_1">
      <!-- 1830 -->
      <defs>
       <path d="M 12.40625 8.296875 
L 28.515625 8.296875 
L 28.515625 63.921875 
L 10.984375 60.40625 
L 10.984375 69.390625 
L 28.421875 72.90625 
L 38.28125 72.90625 
L 38.28125 8.296875 
L 54.390625 8.296875 
L 54.390625 0 
L 12.40625 0 
z
" id="DejaVuSans-49"/>
       <path d="M 31.78125 34.625 
Q 24.75 34.625 20.71875 30.859375 
Q 16.703125 27.09375 16.703125 20.515625 
Q 16.703125 13.921875 20.71875 10.15625 
Q 24.75 6.390625 31.78125 6.390625 
Q 38.8125 6.390625 42.859375 10.171875 
Q 46.921875 13.96875 46.921875 20.515625 
Q 46.921875 27.09375 42.890625 30.859375 
Q 38.875 34.625 31.78125 34.625 
z
M 21.921875 38.8125 
Q 15.578125 40.375 12.03125 44.71875 
Q 8.5 49.078125 8.5 55.328125 
Q 8.5 64.0625 14.71875 69.140625 
Q 20.953125 74.21875 31.78125 74.21875 
Q 42.671875 74.21875 48.875 69.140625 
Q 55.078125 64.0625 55.078125 55.328125 
Q 55.078125 49.078125 51.53125 44.71875 
Q 48 40.375 41.703125 38.8125 
Q 48.828125 37.15625 52.796875 32.3125 
Q 56.78125 27.484375 56.78125 20.515625 
Q 56.78125 9.90625 50.3125 4.234375 
Q 43.84375 -1.421875 31.78125 -1.421875 
Q 19.734375 -1.421875 13.25 4.234375 
Q 6.78125 9.90625 6.78125 20.515625 
Q 6.78125 27.484375 10.78125 32.3125 
Q 14.796875 37.15625 21.921875 38.8125 
z
M 18.3125 54.390625 
Q 18.3125 48.734375 21.84375 45.5625 
Q 25.390625 42.390625 31.78125 42.390625 
Q 38.140625 42.390625 41.71875 45.5625 
Q 45.3125 48.734375 45.3125 54.390625 
Q 45.3125 60.0625 41.71875 63.234375 
Q 38.140625 66.40625 31.78125 66.40625 
Q 25.390625 66.40625 21.84375 63.234375 
Q 18.3125 60.0625 18.3125 54.390625 
z
" id="DejaVuSans-56"/>
       <path d="M 40.578125 39.3125 
Q 47.65625 37.796875 51.625 33 
Q 55.609375 28.21875 55.609375 21.1875 
Q 55.609375 10.40625 48.1875 4.484375 
Q 40.765625 -1.421875 27.09375 -1.421875 
Q 22.515625 -1.421875 17.65625 -0.515625 
Q 12.796875 0.390625 7.625 2.203125 
L 7.625 11.71875 
Q 11.71875 9.328125 16.59375 8.109375 
Q 21.484375 6.890625 26.8125 6.890625 
Q 36.078125 6.890625 40.9375 10.546875 
Q 45.796875 14.203125 45.796875 21.1875 
Q 45.796875 27.640625 41.28125 31.265625 
Q 36.765625 34.90625 28.71875 34.90625 
L 20.21875 34.90625 
L 20.21875 43.015625 
L 29.109375 43.015625 
Q 36.375 43.015625 40.234375 45.921875 
Q 44.09375 48.828125 44.09375 54.296875 
Q 44.09375 59.90625 40.109375 62.90625 
Q 36.140625 65.921875 28.71875 65.921875 
Q 24.65625 65.921875 20.015625 65.03125 
Q 15.375 64.15625 9.8125 62.3125 
L 9.8125 71.09375 
Q 15.4375 72.65625 20.34375 73.4375 
Q 25.25 74.21875 29.59375 74.21875 
Q 40.828125 74.21875 47.359375 69.109375 
Q 53.90625 64.015625 53.90625 55.328125 
Q 53.90625 49.265625 50.4375 45.09375 
Q 46.96875 40.921875 40.578125 39.3125 
z
" id="DejaVuSans-51"/>
       <path d="M 31.78125 66.40625 
Q 24.171875 66.40625 20.328125 58.90625 
Q 16.5 51.421875 16.5 36.375 
Q 16.5 21.390625 20.328125 13.890625 
Q 24.171875 6.390625 31.78125 6.390625 
Q 39.453125 6.390625 43.28125 13.890625 
Q 47.125 21.390625 47.125 36.375 
Q 47.125 51.421875 43.28125 58.90625 
Q 39.453125 66.40625 31.78125 66.40625 
z
M 31.78125 74.21875 
Q 44.046875 74.21875 50.515625 64.515625 
Q 56.984375 54.828125 56.984375 36.375 
Q 56.984375 17.96875 50.515625 8.265625 
Q 44.046875 -1.421875 31.78125 -1.421875 
Q 19.53125 -1.421875 13.0625 8.265625 
Q 6.59375 17.96875 6.59375 36.375 
Q 6.59375 54.828125 13.0625 64.515625 
Q 19.53125 74.21875 31.78125 74.21875 
z
" id="DejaVuSans-48"/>
      </defs>
      <g transform="translate(61.084963 250.244439)rotate(-45)scale(0.1 -0.1)">
       <use xlink:href="#DejaVuSans-49"/>
       <use x="63.623047" xlink:href="#DejaVuSans-56"/>
       <use x="127.246094" xlink:href="#DejaVuSans-51"/>
       <use x="190.869141" xlink:href="#DejaVuSans-48"/>
      </g>
     </g>
    </g>
    <g id="xtick_2">
     <g id="line2d_3">
      <path clip-path="url(#p44d700ec0b)" d="M 87.055615 219.875665 
L 87.055615 45.040625 
" style="fill:none;stroke:#b0b0b0;stroke-linecap:square;stroke-width:0.8;"/>
     </g>
     <g id="line2d_4">
      <g>
       <use style="stroke:#000000;stroke-width:0.8;" x="87.055615" xlink:href="#m4c6c9d142a" y="219.875665"/>
      </g>
     </g>
     <g id="text_2">
      <!-- 1840 -->
      <defs>
       <path d="M 37.796875 64.3125 
L 12.890625 25.390625 
L 37.796875 25.390625 
z
M 35.203125 72.90625 
L 47.609375 72.90625 
L 47.609375 25.390625 
L 58.015625 25.390625 
L 58.015625 17.1875 
L 47.609375 17.1875 
L 47.609375 0 
L 37.796875 0 
L 37.796875 17.1875 
L 4.890625 17.1875 
L 4.890625 26.703125 
z
" id="DejaVuSans-52"/>
      </defs>
      <g transform="translate(80.008854 250.244439)rotate(-45)scale(0.1 -0.1)">
       <use xlink:href="#DejaVuSans-49"/>
       <use x="63.623047" xlink:href="#DejaVuSans-56"/>
       <use x="127.246094" xlink:href="#DejaVuSans-52"/>
       <use x="190.869141" xlink:href="#DejaVuSans-48"/>
      </g>
     </g>
    </g>
    <g id="xtick_3">
     <g id="line2d_5">
      <path clip-path="url(#p44d700ec0b)" d="M 105.979507 219.875665 
L 105.979507 45.040625 
" style="fill:none;stroke:#b0b0b0;stroke-linecap:square;stroke-width:0.8;"/>
     </g>
     <g id="line2d_6">
      <g>
       <use style="stroke:#000000;stroke-width:0.8;" x="105.979507" xlink:href="#m4c6c9d142a" y="219.875665"/>
      </g>
     </g>
     <g id="text_3">
      <!-- 1850 -->
      <defs>
       <path d="M 10.796875 72.90625 
L 49.515625 72.90625 
L 49.515625 64.59375 
L 19.828125 64.59375 
L 19.828125 46.734375 
Q 21.96875 47.46875 24.109375 47.828125 
Q 26.265625 48.1875 28.421875 48.1875 
Q 40.625 48.1875 47.75 41.5 
Q 54.890625 34.8125 54.890625 23.390625 
Q 54.890625 11.625 47.5625 5.09375 
Q 40.234375 -1.421875 26.90625 -1.421875 
Q 22.3125 -1.421875 17.546875 -0.640625 
Q 12.796875 0.140625 7.71875 1.703125 
L 7.71875 11.625 
Q 12.109375 9.234375 16.796875 8.0625 
Q 21.484375 6.890625 26.703125 6.890625 
Q 35.15625 6.890625 40.078125 11.328125 
Q 45.015625 15.765625 45.015625 23.390625 
Q 45.015625 31 40.078125 35.4375 
Q 35.15625 39.890625 26.703125 39.890625 
Q 22.75 39.890625 18.8125 39.015625 
Q 14.890625 38.140625 10.796875 36.28125 
z
" id="DejaVuSans-53"/>
      </defs>
      <g transform="translate(98.932746 250.244439)rotate(-45)scale(0.1 -0.1)">
       <use xlink:href="#DejaVuSans-49"/>
       <use x="63.623047" xlink:href="#DejaVuSans-56"/>
       <use x="127.246094" xlink:href="#DejaVuSans-53"/>
       <use x="190.869141" xlink:href="#DejaVuSans-48"/>
      </g>
     </g>
    </g>
    <g id="xtick_4">
     <g id="line2d_7">
      <path clip-path="url(#p44d700ec0b)" d="M 124.903398 219.875665 
L 124.903398 45.040625 
" style="fill:none;stroke:#b0b0b0;stroke-linecap:square;stroke-width:0.8;"/>
     </g>
     <g id="line2d_8">
      <g>
       <use style="stroke:#000000;stroke-width:0.8;" x="124.903398" xlink:href="#m4c6c9d142a" y="219.875665"/>
      </g>
     </g>
     <g id="text_4">
      <!-- 1860 -->
      <defs>
       <path d="M 33.015625 40.375 
Q 26.375 40.375 22.484375 35.828125 
Q 18.609375 31.296875 18.609375 23.390625 
Q 18.609375 15.53125 22.484375 10.953125 
Q 26.375 6.390625 33.015625 6.390625 
Q 39.65625 6.390625 43.53125 10.953125 
Q 47.40625 15.53125 47.40625 23.390625 
Q 47.40625 31.296875 43.53125 35.828125 
Q 39.65625 40.375 33.015625 40.375 
z
M 52.59375 71.296875 
L 52.59375 62.3125 
Q 48.875 64.0625 45.09375 64.984375 
Q 41.3125 65.921875 37.59375 65.921875 
Q 27.828125 65.921875 22.671875 59.328125 
Q 17.53125 52.734375 16.796875 39.40625 
Q 19.671875 43.65625 24.015625 45.921875 
Q 28.375 48.1875 33.59375 48.1875 
Q 44.578125 48.1875 50.953125 41.515625 
Q 57.328125 34.859375 57.328125 23.390625 
Q 57.328125 12.15625 50.6875 5.359375 
Q 44.046875 -1.421875 33.015625 -1.421875 
Q 20.359375 -1.421875 13.671875 8.265625 
Q 6.984375 17.96875 6.984375 36.375 
Q 6.984375 53.65625 15.1875 63.9375 
Q 23.390625 74.21875 37.203125 74.21875 
Q 40.921875 74.21875 44.703125 73.484375 
Q 48.484375 72.75 52.59375 71.296875 
z
" id="DejaVuSans-54"/>
      </defs>
      <g transform="translate(117.856637 250.244439)rotate(-45)scale(0.1 -0.1)">
       <use xlink:href="#DejaVuSans-49"/>
       <use x="63.623047" xlink:href="#DejaVuSans-56"/>
       <use x="127.246094" xlink:href="#DejaVuSans-54"/>
       <use x="190.869141" xlink:href="#DejaVuSans-48"/>
      </g>
     </g>
    </g>
    <g id="xtick_5">
     <g id="line2d_9">
      <path clip-path="url(#p44d700ec0b)" d="M 143.82729 219.875665 
L 143.82729 45.040625 
" style="fill:none;stroke:#b0b0b0;stroke-linecap:square;stroke-width:0.8;"/>
     </g>
     <g id="line2d_10">
      <g>
       <use style="stroke:#000000;stroke-width:0.8;" x="143.82729" xlink:href="#m4c6c9d142a" y="219.875665"/>
      </g>
     </g>
     <g id="text_5">
      <!-- 1870 -->
      <defs>
       <path d="M 8.203125 72.90625 
L 55.078125 72.90625 
L 55.078125 68.703125 
L 28.609375 0 
L 18.3125 0 
L 43.21875 64.59375 
L 8.203125 64.59375 
z
" id="DejaVuSans-55"/>
      </defs>
      <g transform="translate(136.780529 250.244439)rotate(-45)scale(0.1 -0.1)">
       <use xlink:href="#DejaVuSans-49"/>
       <use x="63.623047" xlink:href="#DejaVuSans-56"/>
       <use x="127.246094" xlink:href="#DejaVuSans-55"/>
       <use x="190.869141" xlink:href="#DejaVuSans-48"/>
      </g>
     </g>
    </g>
    <g id="xtick_6">
     <g id="line2d_11">
      <path clip-path="url(#p44d700ec0b)" d="M 162.751181 219.875665 
L 162.751181 45.040625 
" style="fill:none;stroke:#b0b0b0;stroke-linecap:square;stroke-width:0.8;"/>
     </g>
     <g id="line2d_12">
      <g>
       <use style="stroke:#000000;stroke-width:0.8;" x="162.751181" xlink:href="#m4c6c9d142a" y="219.875665"/>
      </g>
     </g>
     <g id="text_6">
      <!-- 1880 -->
      <g transform="translate(155.70442 250.244439)rotate(-45)scale(0.1 -0.1)">
       <use xlink:href="#DejaVuSans-49"/>
       <use x="63.623047" xlink:href="#DejaVuSans-56"/>
       <use x="127.246094" xlink:href="#DejaVuSans-56"/>
       <use x="190.869141" xlink:href="#DejaVuSans-48"/>
      </g>
     </g>
    </g>
    <g id="xtick_7">
     <g id="line2d_13">
      <path clip-path="url(#p44d700ec0b)" d="M 181.675073 219.875665 
L 181.675073 45.040625 
" style="fill:none;stroke:#b0b0b0;stroke-linecap:square;stroke-width:0.8;"/>
     </g>
     <g id="line2d_14">
      <g>
       <use style="stroke:#000000;stroke-width:0.8;" x="181.675073" xlink:href="#m4c6c9d142a" y="219.875665"/>
      </g>
     </g>
     <g id="text_7">
      <!-- 1890 -->
      <defs>
       <path d="M 10.984375 1.515625 
L 10.984375 10.5 
Q 14.703125 8.734375 18.5 7.8125 
Q 22.3125 6.890625 25.984375 6.890625 
Q 35.75 6.890625 40.890625 13.453125 
Q 46.046875 20.015625 46.78125 33.40625 
Q 43.953125 29.203125 39.59375 26.953125 
Q 35.25 24.703125 29.984375 24.703125 
Q 19.046875 24.703125 12.671875 31.3125 
Q 6.296875 37.9375 6.296875 49.421875 
Q 6.296875 60.640625 12.9375 67.421875 
Q 19.578125 74.21875 30.609375 74.21875 
Q 43.265625 74.21875 49.921875 64.515625 
Q 56.59375 54.828125 56.59375 36.375 
Q 56.59375 19.140625 48.40625 8.859375 
Q 40.234375 -1.421875 26.421875 -1.421875 
Q 22.703125 -1.421875 18.890625 -0.6875 
Q 15.09375 0.046875 10.984375 1.515625 
z
M 30.609375 32.421875 
Q 37.25 32.421875 41.125 36.953125 
Q 45.015625 41.5 45.015625 49.421875 
Q 45.015625 57.28125 41.125 61.84375 
Q 37.25 66.40625 30.609375 66.40625 
Q 23.96875 66.40625 20.09375 61.84375 
Q 16.21875 57.28125 16.21875 49.421875 
Q 16.21875 41.5 20.09375 36.953125 
Q 23.96875 32.421875 30.609375 32.421875 
z
" id="DejaVuSans-57"/>
      </defs>
      <g transform="translate(174.628312 250.244439)rotate(-45)scale(0.1 -0.1)">
       <use xlink:href="#DejaVuSans-49"/>
       <use x="63.623047" xlink:href="#DejaVuSans-56"/>
       <use x="127.246094" xlink:href="#DejaVuSans-57"/>
       <use x="190.869141" xlink:href="#DejaVuSans-48"/>
      </g>
     </g>
    </g>
    <g id="xtick_8">
     <g id="line2d_15">
      <path clip-path="url(#p44d700ec0b)" d="M 200.598964 219.875665 
L 200.598964 45.040625 
" style="fill:none;stroke:#b0b0b0;stroke-linecap:square;stroke-width:0.8;"/>
     </g>
     <g id="line2d_16">
      <g>
       <use style="stroke:#000000;stroke-width:0.8;" x="200.598964" xlink:href="#m4c6c9d142a" y="219.875665"/>
      </g>
     </g>
     <g id="text_8">
      <!-- 1900 -->
      <g transform="translate(193.552203 250.244439)rotate(-45)scale(0.1 -0.1)">
       <use xlink:href="#DejaVuSans-49"/>
       <use x="63.623047" xlink:href="#DejaVuSans-57"/>
       <use x="127.246094" xlink:href="#DejaVuSans-48"/>
       <use x="190.869141" xlink:href="#DejaVuSans-48"/>
      </g>
     </g>
    </g>
    <g id="xtick_9">
     <g id="line2d_17">
      <path clip-path="url(#p44d700ec0b)" d="M 219.522856 219.875665 
L 219.522856 45.040625 
" style="fill:none;stroke:#b0b0b0;stroke-linecap:square;stroke-width:0.8;"/>
     </g>
     <g id="line2d_18">
      <g>
       <use style="stroke:#000000;stroke-width:0.8;" x="219.522856" xlink:href="#m4c6c9d142a" y="219.875665"/>
      </g>
     </g>
     <g id="text_9">
      <!-- 1910 -->
      <g transform="translate(212.476095 250.244439)rotate(-45)scale(0.1 -0.1)">
       <use xlink:href="#DejaVuSans-49"/>
       <use x="63.623047" xlink:href="#DejaVuSans-57"/>
       <use x="127.246094" xlink:href="#DejaVuSans-49"/>
       <use x="190.869141" xlink:href="#DejaVuSans-48"/>
      </g>
     </g>
    </g>
    <g id="xtick_10">
     <g id="line2d_19">
      <path clip-path="url(#p44d700ec0b)" d="M 238.446747 219.875665 
L 238.446747 45.040625 
" style="fill:none;stroke:#b0b0b0;stroke-linecap:square;stroke-width:0.8;"/>
     </g>
     <g id="line2d_20">
      <g>
       <use style="stroke:#000000;stroke-width:0.8;" x="238.446747" xlink:href="#m4c6c9d142a" y="219.875665"/>
      </g>
     </g>
     <g id="text_10">
      <!-- 1920 -->
      <defs>
       <path d="M 19.1875 8.296875 
L 53.609375 8.296875 
L 53.609375 0 
L 7.328125 0 
L 7.328125 8.296875 
Q 12.9375 14.109375 22.625 23.890625 
Q 32.328125 33.6875 34.8125 36.53125 
Q 39.546875 41.84375 41.421875 45.53125 
Q 43.3125 49.21875 43.3125 52.78125 
Q 43.3125 58.59375 39.234375 62.25 
Q 35.15625 65.921875 28.609375 65.921875 
Q 23.96875 65.921875 18.8125 64.3125 
Q 13.671875 62.703125 7.8125 59.421875 
L 7.8125 69.390625 
Q 13.765625 71.78125 18.9375 73 
Q 24.125 74.21875 28.421875 74.21875 
Q 39.75 74.21875 46.484375 68.546875 
Q 53.21875 62.890625 53.21875 53.421875 
Q 53.21875 48.921875 51.53125 44.890625 
Q 49.859375 40.875 45.40625 35.40625 
Q 44.1875 33.984375 37.640625 27.21875 
Q 31.109375 20.453125 19.1875 8.296875 
z
" id="DejaVuSans-50"/>
      </defs>
      <g transform="translate(231.399986 250.244439)rotate(-45)scale(0.1 -0.1)">
       <use xlink:href="#DejaVuSans-49"/>
       <use x="63.623047" xlink:href="#DejaVuSans-57"/>
       <use x="127.246094" xlink:href="#DejaVuSans-50"/>
       <use x="190.869141" xlink:href="#DejaVuSans-48"/>
      </g>
     </g>
    </g>
    <g id="xtick_11">
     <g id="line2d_21">
      <path clip-path="url(#p44d700ec0b)" d="M 257.370638 219.875665 
L 257.370638 45.040625 
" style="fill:none;stroke:#b0b0b0;stroke-linecap:square;stroke-width:0.8;"/>
     </g>
     <g id="line2d_22">
      <g>
       <use style="stroke:#000000;stroke-width:0.8;" x="257.370638" xlink:href="#m4c6c9d142a" y="219.875665"/>
      </g>
     </g>
     <g id="text_11">
      <!-- 1930 -->
      <g transform="translate(250.323877 250.244439)rotate(-45)scale(0.1 -0.1)">
       <use xlink:href="#DejaVuSans-49"/>
       <use x="63.623047" xlink:href="#DejaVuSans-57"/>
       <use x="127.246094" xlink:href="#DejaVuSans-51"/>
       <use x="190.869141" xlink:href="#DejaVuSans-48"/>
      </g>
     </g>
    </g>
    <g id="xtick_12">
     <g id="line2d_23">
      <path clip-path="url(#p44d700ec0b)" d="M 276.29453 219.875665 
L 276.29453 45.040625 
" style="fill:none;stroke:#b0b0b0;stroke-linecap:square;stroke-width:0.8;"/>
     </g>
     <g id="line2d_24">
      <g>
       <use style="stroke:#000000;stroke-width:0.8;" x="276.29453" xlink:href="#m4c6c9d142a" y="219.875665"/>
      </g>
     </g>
     <g id="text_12">
      <!-- 1940 -->
      <g transform="translate(269.247769 250.244439)rotate(-45)scale(0.1 -0.1)">
       <use xlink:href="#DejaVuSans-49"/>
       <use x="63.623047" xlink:href="#DejaVuSans-57"/>
       <use x="127.246094" xlink:href="#DejaVuSans-52"/>
       <use x="190.869141" xlink:href="#DejaVuSans-48"/>
      </g>
     </g>
    </g>
    <g id="xtick_13">
     <g id="line2d_25">
      <path clip-path="url(#p44d700ec0b)" d="M 295.218421 219.875665 
L 295.218421 45.040625 
" style="fill:none;stroke:#b0b0b0;stroke-linecap:square;stroke-width:0.8;"/>
     </g>
     <g id="line2d_26">
      <g>
       <use style="stroke:#000000;stroke-width:0.8;" x="295.218421" xlink:href="#m4c6c9d142a" y="219.875665"/>
      </g>
     </g>
     <g id="text_13">
      <!-- 1950 -->
      <g transform="translate(288.17166 250.244439)rotate(-45)scale(0.1 -0.1)">
       <use xlink:href="#DejaVuSans-49"/>
       <use x="63.623047" xlink:href="#DejaVuSans-57"/>
       <use x="127.246094" xlink:href="#DejaVuSans-53"/>
       <use x="190.869141" xlink:href="#DejaVuSans-48"/>
      </g>
     </g>
    </g>
    <g id="xtick_14">
     <g id="line2d_27">
      <path clip-path="url(#p44d700ec0b)" d="M 314.142313 219.875665 
L 314.142313 45.040625 
" style="fill:none;stroke:#b0b0b0;stroke-linecap:square;stroke-width:0.8;"/>
     </g>
     <g id="line2d_28">
      <g>
       <use style="stroke:#000000;stroke-width:0.8;" x="314.142313" xlink:href="#m4c6c9d142a" y="219.875665"/>
      </g>
     </g>
     <g id="text_14">
      <!-- 1960 -->
      <g transform="translate(307.095552 250.244439)rotate(-45)scale(0.1 -0.1)">
       <use xlink:href="#DejaVuSans-49"/>
       <use x="63.623047" xlink:href="#DejaVuSans-57"/>
       <use x="127.246094" xlink:href="#DejaVuSans-54"/>
       <use x="190.869141" xlink:href="#DejaVuSans-48"/>
      </g>
     </g>
    </g>
    <g id="xtick_15">
     <g id="line2d_29">
      <path clip-path="url(#p44d700ec0b)" d="M 333.066204 219.875665 
L 333.066204 45.040625 
" style="fill:none;stroke:#b0b0b0;stroke-linecap:square;stroke-width:0.8;"/>
     </g>
     <g id="line2d_30">
      <g>
       <use style="stroke:#000000;stroke-width:0.8;" x="333.066204" xlink:href="#m4c6c9d142a" y="219.875665"/>
      </g>
     </g>
     <g id="text_15">
      <!-- 1970 -->
      <g transform="translate(326.019443 250.244439)rotate(-45)scale(0.1 -0.1)">
       <use xlink:href="#DejaVuSans-49"/>
       <use x="63.623047" xlink:href="#DejaVuSans-57"/>
       <use x="127.246094" xlink:href="#DejaVuSans-55"/>
       <use x="190.869141" xlink:href="#DejaVuSans-48"/>
      </g>
     </g>
    </g>
    <g id="xtick_16">
     <g id="line2d_31">
      <path clip-path="url(#p44d700ec0b)" d="M 351.990096 219.875665 
L 351.990096 45.040625 
" style="fill:none;stroke:#b0b0b0;stroke-linecap:square;stroke-width:0.8;"/>
     </g>
     <g id="line2d_32">
      <g>
       <use style="stroke:#000000;stroke-width:0.8;" x="351.990096" xlink:href="#m4c6c9d142a" y="219.875665"/>
      </g>
     </g>
     <g id="text_16">
      <!-- 1980 -->
      <g transform="translate(344.943335 250.244439)rotate(-45)scale(0.1 -0.1)">
       <use xlink:href="#DejaVuSans-49"/>
       <use x="63.623047" xlink:href="#DejaVuSans-57"/>
       <use x="127.246094" xlink:href="#DejaVuSans-56"/>
       <use x="190.869141" xlink:href="#DejaVuSans-48"/>
      </g>
     </g>
    </g>
    <g id="xtick_17">
     <g id="line2d_33">
      <path clip-path="url(#p44d700ec0b)" d="M 370.913987 219.875665 
L 370.913987 45.040625 
" style="fill:none;stroke:#b0b0b0;stroke-linecap:square;stroke-width:0.8;"/>
     </g>
     <g id="line2d_34">
      <g>
       <use style="stroke:#000000;stroke-width:0.8;" x="370.913987" xlink:href="#m4c6c9d142a" y="219.875665"/>
      </g>
     </g>
     <g id="text_17">
      <!-- 1990 -->
      <g transform="translate(363.867226 250.244439)rotate(-45)scale(0.1 -0.1)">
       <use xlink:href="#DejaVuSans-49"/>
       <use x="63.623047" xlink:href="#DejaVuSans-57"/>
       <use x="127.246094" xlink:href="#DejaVuSans-57"/>
       <use x="190.869141" xlink:href="#DejaVuSans-48"/>
      </g>
     </g>
    </g>
    <g id="xtick_18">
     <g id="line2d_35">
      <path clip-path="url(#p44d700ec0b)" d="M 389.837879 219.875665 
L 389.837879 45.040625 
" style="fill:none;stroke:#b0b0b0;stroke-linecap:square;stroke-width:0.8;"/>
     </g>
     <g id="line2d_36">
      <g>
       <use style="stroke:#000000;stroke-width:0.8;" x="389.837879" xlink:href="#m4c6c9d142a" y="219.875665"/>
      </g>
     </g>
     <g id="text_18">
      <!-- 2000 -->
      <g transform="translate(382.791118 250.244439)rotate(-45)scale(0.1 -0.1)">
       <use xlink:href="#DejaVuSans-50"/>
       <use x="63.623047" xlink:href="#DejaVuSans-48"/>
       <use x="127.246094" xlink:href="#DejaVuSans-48"/>
       <use x="190.869141" xlink:href="#DejaVuSans-48"/>
      </g>
     </g>
    </g>
    <g id="xtick_19">
     <g id="line2d_37">
      <path clip-path="url(#p44d700ec0b)" d="M 408.76177 219.875665 
L 408.76177 45.040625 
" style="fill:none;stroke:#b0b0b0;stroke-linecap:square;stroke-width:0.8;"/>
     </g>
     <g id="line2d_38">
      <g>
       <use style="stroke:#000000;stroke-width:0.8;" x="408.76177" xlink:href="#m4c6c9d142a" y="219.875665"/>
      </g>
     </g>
     <g id="text_19">
      <!-- 2010 -->
      <g transform="translate(401.715009 250.244439)rotate(-45)scale(0.1 -0.1)">
       <use xlink:href="#DejaVuSans-50"/>
       <use x="63.623047" xlink:href="#DejaVuSans-48"/>
       <use x="127.246094" xlink:href="#DejaVuSans-49"/>
       <use x="190.869141" xlink:href="#DejaVuSans-48"/>
      </g>
     </g>
    </g>
    <g id="text_20">
     <!-- Acquisition Year -->
     <defs>
      <path d="M 34.1875 63.1875 
L 20.796875 26.90625 
L 47.609375 26.90625 
z
M 28.609375 72.90625 
L 39.796875 72.90625 
L 67.578125 0 
L 57.328125 0 
L 50.6875 18.703125 
L 17.828125 18.703125 
L 11.1875 0 
L 0.78125 0 
z
" id="DejaVuSans-65"/>
      <path d="M 48.78125 52.59375 
L 48.78125 44.1875 
Q 44.96875 46.296875 41.140625 47.34375 
Q 37.3125 48.390625 33.40625 48.390625 
Q 24.65625 48.390625 19.8125 42.84375 
Q 14.984375 37.3125 14.984375 27.296875 
Q 14.984375 17.28125 19.8125 11.734375 
Q 24.65625 6.203125 33.40625 6.203125 
Q 37.3125 6.203125 41.140625 7.25 
Q 44.96875 8.296875 48.78125 10.40625 
L 48.78125 2.09375 
Q 45.015625 0.34375 40.984375 -0.53125 
Q 36.96875 -1.421875 32.421875 -1.421875 
Q 20.0625 -1.421875 12.78125 6.34375 
Q 5.515625 14.109375 5.515625 27.296875 
Q 5.515625 40.671875 12.859375 48.328125 
Q 20.21875 56 33.015625 56 
Q 37.15625 56 41.109375 55.140625 
Q 45.0625 54.296875 48.78125 52.59375 
z
" id="DejaVuSans-99"/>
      <path d="M 14.796875 27.296875 
Q 14.796875 17.390625 18.875 11.75 
Q 22.953125 6.109375 30.078125 6.109375 
Q 37.203125 6.109375 41.296875 11.75 
Q 45.40625 17.390625 45.40625 27.296875 
Q 45.40625 37.203125 41.296875 42.84375 
Q 37.203125 48.484375 30.078125 48.484375 
Q 22.953125 48.484375 18.875 42.84375 
Q 14.796875 37.203125 14.796875 27.296875 
z
M 45.40625 8.203125 
Q 42.578125 3.328125 38.25 0.953125 
Q 33.9375 -1.421875 27.875 -1.421875 
Q 17.96875 -1.421875 11.734375 6.484375 
Q 5.515625 14.40625 5.515625 27.296875 
Q 5.515625 40.1875 11.734375 48.09375 
Q 17.96875 56 27.875 56 
Q 33.9375 56 38.25 53.625 
Q 42.578125 51.265625 45.40625 46.390625 
L 45.40625 54.6875 
L 54.390625 54.6875 
L 54.390625 -20.796875 
L 45.40625 -20.796875 
z
" id="DejaVuSans-113"/>
      <path d="M 8.5 21.578125 
L 8.5 54.6875 
L 17.484375 54.6875 
L 17.484375 21.921875 
Q 17.484375 14.15625 20.5 10.265625 
Q 23.53125 6.390625 29.59375 6.390625 
Q 36.859375 6.390625 41.078125 11.03125 
Q 45.3125 15.671875 45.3125 23.6875 
L 45.3125 54.6875 
L 54.296875 54.6875 
L 54.296875 0 
L 45.3125 0 
L 45.3125 8.40625 
Q 42.046875 3.421875 37.71875 1 
Q 33.40625 -1.421875 27.6875 -1.421875 
Q 18.265625 -1.421875 13.375 4.4375 
Q 8.5 10.296875 8.5 21.578125 
z
M 31.109375 56 
z
" id="DejaVuSans-117"/>
      <path d="M 9.421875 54.6875 
L 18.40625 54.6875 
L 18.40625 0 
L 9.421875 0 
z
M 9.421875 75.984375 
L 18.40625 75.984375 
L 18.40625 64.59375 
L 9.421875 64.59375 
z
" id="DejaVuSans-105"/>
      <path d="M 44.28125 53.078125 
L 44.28125 44.578125 
Q 40.484375 46.53125 36.375 47.5 
Q 32.28125 48.484375 27.875 48.484375 
Q 21.1875 48.484375 17.84375 46.4375 
Q 14.5 44.390625 14.5 40.28125 
Q 14.5 37.15625 16.890625 35.375 
Q 19.28125 33.59375 26.515625 31.984375 
L 29.59375 31.296875 
Q 39.15625 29.25 43.1875 25.515625 
Q 47.21875 21.78125 47.21875 15.09375 
Q 47.21875 7.46875 41.1875 3.015625 
Q 35.15625 -1.421875 24.609375 -1.421875 
Q 20.21875 -1.421875 15.453125 -0.5625 
Q 10.6875 0.296875 5.421875 2 
L 5.421875 11.28125 
Q 10.40625 8.6875 15.234375 7.390625 
Q 20.0625 6.109375 24.8125 6.109375 
Q 31.15625 6.109375 34.5625 8.28125 
Q 37.984375 10.453125 37.984375 14.40625 
Q 37.984375 18.0625 35.515625 20.015625 
Q 33.0625 21.96875 24.703125 23.78125 
L 21.578125 24.515625 
Q 13.234375 26.265625 9.515625 29.90625 
Q 5.8125 33.546875 5.8125 39.890625 
Q 5.8125 47.609375 11.28125 51.796875 
Q 16.75 56 26.8125 56 
Q 31.78125 56 36.171875 55.265625 
Q 40.578125 54.546875 44.28125 53.078125 
z
" id="DejaVuSans-115"/>
      <path d="M 18.3125 70.21875 
L 18.3125 54.6875 
L 36.8125 54.6875 
L 36.8125 47.703125 
L 18.3125 47.703125 
L 18.3125 18.015625 
Q 18.3125 11.328125 20.140625 9.421875 
Q 21.96875 7.515625 27.59375 7.515625 
L 36.8125 7.515625 
L 36.8125 0 
L 27.59375 0 
Q 17.1875 0 13.234375 3.875 
Q 9.28125 7.765625 9.28125 18.015625 
L 9.28125 47.703125 
L 2.6875 47.703125 
L 2.6875 54.6875 
L 9.28125 54.6875 
L 9.28125 70.21875 
z
" id="DejaVuSans-116"/>
      <path d="M 30.609375 48.390625 
Q 23.390625 48.390625 19.1875 42.75 
Q 14.984375 37.109375 14.984375 27.296875 
Q 14.984375 17.484375 19.15625 11.84375 
Q 23.34375 6.203125 30.609375 6.203125 
Q 37.796875 6.203125 41.984375 11.859375 
Q 46.1875 17.53125 46.1875 27.296875 
Q 46.1875 37.015625 41.984375 42.703125 
Q 37.796875 48.390625 30.609375 48.390625 
z
M 30.609375 56 
Q 42.328125 56 49.015625 48.375 
Q 55.71875 40.765625 55.71875 27.296875 
Q 55.71875 13.875 49.015625 6.21875 
Q 42.328125 -1.421875 30.609375 -1.421875 
Q 18.84375 -1.421875 12.171875 6.21875 
Q 5.515625 13.875 5.515625 27.296875 
Q 5.515625 40.765625 12.171875 48.375 
Q 18.84375 56 30.609375 56 
z
" id="DejaVuSans-111"/>
      <path d="M 54.890625 33.015625 
L 54.890625 0 
L 45.90625 0 
L 45.90625 32.71875 
Q 45.90625 40.484375 42.875 44.328125 
Q 39.84375 48.1875 33.796875 48.1875 
Q 26.515625 48.1875 22.3125 43.546875 
Q 18.109375 38.921875 18.109375 30.90625 
L 18.109375 0 
L 9.078125 0 
L 9.078125 54.6875 
L 18.109375 54.6875 
L 18.109375 46.1875 
Q 21.34375 51.125 25.703125 53.5625 
Q 30.078125 56 35.796875 56 
Q 45.21875 56 50.046875 50.171875 
Q 54.890625 44.34375 54.890625 33.015625 
z
" id="DejaVuSans-110"/>
      <path id="DejaVuSans-32"/>
      <path d="M -0.203125 72.90625 
L 10.40625 72.90625 
L 30.609375 42.921875 
L 50.6875 72.90625 
L 61.28125 72.90625 
L 35.5 34.71875 
L 35.5 0 
L 25.59375 0 
L 25.59375 34.71875 
z
" id="DejaVuSans-89"/>
      <path d="M 56.203125 29.59375 
L 56.203125 25.203125 
L 14.890625 25.203125 
Q 15.484375 15.921875 20.484375 11.0625 
Q 25.484375 6.203125 34.421875 6.203125 
Q 39.59375 6.203125 44.453125 7.46875 
Q 49.3125 8.734375 54.109375 11.28125 
L 54.109375 2.78125 
Q 49.265625 0.734375 44.1875 -0.34375 
Q 39.109375 -1.421875 33.890625 -1.421875 
Q 20.796875 -1.421875 13.15625 6.1875 
Q 5.515625 13.8125 5.515625 26.8125 
Q 5.515625 40.234375 12.765625 48.109375 
Q 20.015625 56 32.328125 56 
Q 43.359375 56 49.78125 48.890625 
Q 56.203125 41.796875 56.203125 29.59375 
z
M 47.21875 32.234375 
Q 47.125 39.59375 43.09375 43.984375 
Q 39.0625 48.390625 32.421875 48.390625 
Q 24.90625 48.390625 20.390625 44.140625 
Q 15.875 39.890625 15.1875 32.171875 
z
" id="DejaVuSans-101"/>
      <path d="M 34.28125 27.484375 
Q 23.390625 27.484375 19.1875 25 
Q 14.984375 22.515625 14.984375 16.5 
Q 14.984375 11.71875 18.140625 8.90625 
Q 21.296875 6.109375 26.703125 6.109375 
Q 34.1875 6.109375 38.703125 11.40625 
Q 43.21875 16.703125 43.21875 25.484375 
L 43.21875 27.484375 
z
M 52.203125 31.203125 
L 52.203125 0 
L 43.21875 0 
L 43.21875 8.296875 
Q 40.140625 3.328125 35.546875 0.953125 
Q 30.953125 -1.421875 24.3125 -1.421875 
Q 15.921875 -1.421875 10.953125 3.296875 
Q 6 8.015625 6 15.921875 
Q 6 25.140625 12.171875 29.828125 
Q 18.359375 34.515625 30.609375 34.515625 
L 43.21875 34.515625 
L 43.21875 35.40625 
Q 43.21875 41.609375 39.140625 45 
Q 35.0625 48.390625 27.6875 48.390625 
Q 23 48.390625 18.546875 47.265625 
Q 14.109375 46.140625 10.015625 43.890625 
L 10.015625 52.203125 
Q 14.9375 54.109375 19.578125 55.046875 
Q 24.21875 56 28.609375 56 
Q 40.484375 56 46.34375 49.84375 
Q 52.203125 43.703125 52.203125 31.203125 
z
" id="DejaVuSans-97"/>
      <path d="M 41.109375 46.296875 
Q 39.59375 47.171875 37.8125 47.578125 
Q 36.03125 48 33.890625 48 
Q 26.265625 48 22.1875 43.046875 
Q 18.109375 38.09375 18.109375 28.8125 
L 18.109375 0 
L 9.078125 0 
L 9.078125 54.6875 
L 18.109375 54.6875 
L 18.109375 46.1875 
Q 20.953125 51.171875 25.484375 53.578125 
Q 30.03125 56 36.53125 56 
Q 37.453125 56 38.578125 55.875 
Q 39.703125 55.765625 41.0625 55.515625 
z
" id="DejaVuSans-114"/>
     </defs>
     <g style="fill:#8b0000;" transform="translate(170.180719 273.8725)scale(0.16 -0.16)">
      <use xlink:href="#DejaVuSans-65"/>
      <use x="68.392578" xlink:href="#DejaVuSans-99"/>
      <use x="123.373047" xlink:href="#DejaVuSans-113"/>
      <use x="186.849609" xlink:href="#DejaVuSans-117"/>
      <use x="250.228516" xlink:href="#DejaVuSans-105"/>
      <use x="278.011719" xlink:href="#DejaVuSans-115"/>
      <use x="330.111328" xlink:href="#DejaVuSans-105"/>
      <use x="357.894531" xlink:href="#DejaVuSans-116"/>
      <use x="397.103516" xlink:href="#DejaVuSans-105"/>
      <use x="424.886719" xlink:href="#DejaVuSans-111"/>
      <use x="486.068359" xlink:href="#DejaVuSans-110"/>
      <use x="549.447266" xlink:href="#DejaVuSans-32"/>
      <use x="581.234375" xlink:href="#DejaVuSans-89"/>
      <use x="642.115234" xlink:href="#DejaVuSans-101"/>
      <use x="703.638672" xlink:href="#DejaVuSans-97"/>
      <use x="764.917969" xlink:href="#DejaVuSans-114"/>
     </g>
    </g>
   </g>
   <g id="matplotlib.axis_2">
    <g id="ytick_1">
     <g id="line2d_39">
      <path clip-path="url(#p44d700ec0b)" d="M 54.885 211.928617 
L 414.438937 211.928617 
" style="fill:none;stroke:#b0b0b0;stroke-linecap:square;stroke-width:0.8;"/>
     </g>
     <g id="line2d_40">
      <defs>
       <path d="M 0 0 
L -3.5 0 
" id="m45b89a0864" style="stroke:#000000;stroke-width:0.8;"/>
      </defs>
      <g>
       <use style="stroke:#000000;stroke-width:0.8;" x="54.885" xlink:href="#m45b89a0864" y="211.928617"/>
      </g>
     </g>
     <g id="text_21">
      <!-- $\mathdefault{10^{0}}$ -->
      <g transform="translate(30.285 215.727836)scale(0.1 -0.1)">
       <use transform="translate(0 0.765625)" xlink:href="#DejaVuSans-49"/>
       <use transform="translate(63.623047 0.765625)" xlink:href="#DejaVuSans-48"/>
       <use transform="translate(128.203125 39.046875)scale(0.7)" xlink:href="#DejaVuSans-48"/>
      </g>
     </g>
    </g>
    <g id="ytick_2">
     <g id="line2d_41">
      <path clip-path="url(#p44d700ec0b)" d="M 54.885 177.214432 
L 414.438937 177.214432 
" style="fill:none;stroke:#b0b0b0;stroke-linecap:square;stroke-width:0.8;"/>
     </g>
     <g id="line2d_42">
      <g>
       <use style="stroke:#000000;stroke-width:0.8;" x="54.885" xlink:href="#m45b89a0864" y="177.214432"/>
      </g>
     </g>
     <g id="text_22">
      <!-- $\mathdefault{10^{1}}$ -->
      <g transform="translate(30.285 181.013651)scale(0.1 -0.1)">
       <use transform="translate(0 0.684375)" xlink:href="#DejaVuSans-49"/>
       <use transform="translate(63.623047 0.684375)" xlink:href="#DejaVuSans-48"/>
       <use transform="translate(128.203125 38.965625)scale(0.7)" xlink:href="#DejaVuSans-49"/>
      </g>
     </g>
    </g>
    <g id="ytick_3">
     <g id="line2d_43">
      <path clip-path="url(#p44d700ec0b)" d="M 54.885 142.500247 
L 414.438937 142.500247 
" style="fill:none;stroke:#b0b0b0;stroke-linecap:square;stroke-width:0.8;"/>
     </g>
     <g id="line2d_44">
      <g>
       <use style="stroke:#000000;stroke-width:0.8;" x="54.885" xlink:href="#m45b89a0864" y="142.500247"/>
      </g>
     </g>
     <g id="text_23">
      <!-- $\mathdefault{10^{2}}$ -->
      <g transform="translate(30.285 146.299466)scale(0.1 -0.1)">
       <use transform="translate(0 0.765625)" xlink:href="#DejaVuSans-49"/>
       <use transform="translate(63.623047 0.765625)" xlink:href="#DejaVuSans-48"/>
       <use transform="translate(128.203125 39.046875)scale(0.7)" xlink:href="#DejaVuSans-50"/>
      </g>
     </g>
    </g>
    <g id="ytick_4">
     <g id="line2d_45">
      <path clip-path="url(#p44d700ec0b)" d="M 54.885 107.786062 
L 414.438937 107.786062 
" style="fill:none;stroke:#b0b0b0;stroke-linecap:square;stroke-width:0.8;"/>
     </g>
     <g id="line2d_46">
      <g>
       <use style="stroke:#000000;stroke-width:0.8;" x="54.885" xlink:href="#m45b89a0864" y="107.786062"/>
      </g>
     </g>
     <g id="text_24">
      <!-- $\mathdefault{10^{3}}$ -->
      <g transform="translate(30.285 111.58528)scale(0.1 -0.1)">
       <use transform="translate(0 0.765625)" xlink:href="#DejaVuSans-49"/>
       <use transform="translate(63.623047 0.765625)" xlink:href="#DejaVuSans-48"/>
       <use transform="translate(128.203125 39.046875)scale(0.7)" xlink:href="#DejaVuSans-51"/>
      </g>
     </g>
    </g>
    <g id="ytick_5">
     <g id="line2d_47">
      <path clip-path="url(#p44d700ec0b)" d="M 54.885 73.071876 
L 414.438937 73.071876 
" style="fill:none;stroke:#b0b0b0;stroke-linecap:square;stroke-width:0.8;"/>
     </g>
     <g id="line2d_48">
      <g>
       <use style="stroke:#000000;stroke-width:0.8;" x="54.885" xlink:href="#m45b89a0864" y="73.071876"/>
      </g>
     </g>
     <g id="text_25">
      <!-- $\mathdefault{10^{4}}$ -->
      <g transform="translate(30.285 76.871095)scale(0.1 -0.1)">
       <use transform="translate(0 0.684375)" xlink:href="#DejaVuSans-49"/>
       <use transform="translate(63.623047 0.684375)" xlink:href="#DejaVuSans-48"/>
       <use transform="translate(128.203125 38.965625)scale(0.7)" xlink:href="#DejaVuSans-52"/>
      </g>
     </g>
    </g>
    <g id="ytick_6">
     <g id="line2d_49">
      <defs>
       <path d="M 0 0 
L -2 0 
" id="m4cd9a4c9a9" style="stroke:#000000;stroke-width:0.6;"/>
      </defs>
      <g>
       <use style="stroke:#000000;stroke-width:0.6;" x="54.885" xlink:href="#m4cd9a4c9a9" y="219.629916"/>
      </g>
     </g>
    </g>
    <g id="ytick_7">
     <g id="line2d_50">
      <g>
       <use style="stroke:#000000;stroke-width:0.6;" x="54.885" xlink:href="#m4cd9a4c9a9" y="217.305913"/>
      </g>
     </g>
    </g>
    <g id="ytick_8">
     <g id="line2d_51">
      <g>
       <use style="stroke:#000000;stroke-width:0.6;" x="54.885" xlink:href="#m4cd9a4c9a9" y="215.292769"/>
      </g>
     </g>
    </g>
    <g id="ytick_9">
     <g id="line2d_52">
      <g>
       <use style="stroke:#000000;stroke-width:0.6;" x="54.885" xlink:href="#m4cd9a4c9a9" y="213.517051"/>
      </g>
     </g>
    </g>
    <g id="ytick_10">
     <g id="line2d_53">
      <g>
       <use style="stroke:#000000;stroke-width:0.6;" x="54.885" xlink:href="#m4cd9a4c9a9" y="201.478606"/>
      </g>
     </g>
    </g>
    <g id="ytick_11">
     <g id="line2d_54">
      <g>
       <use style="stroke:#000000;stroke-width:0.6;" x="54.885" xlink:href="#m4cd9a4c9a9" y="195.365742"/>
      </g>
     </g>
    </g>
    <g id="ytick_12">
     <g id="line2d_55">
      <g>
       <use style="stroke:#000000;stroke-width:0.6;" x="54.885" xlink:href="#m4cd9a4c9a9" y="191.028595"/>
      </g>
     </g>
    </g>
    <g id="ytick_13">
     <g id="line2d_56">
      <g>
       <use style="stroke:#000000;stroke-width:0.6;" x="54.885" xlink:href="#m4cd9a4c9a9" y="187.664443"/>
      </g>
     </g>
    </g>
    <g id="ytick_14">
     <g id="line2d_57">
      <g>
       <use style="stroke:#000000;stroke-width:0.6;" x="54.885" xlink:href="#m4cd9a4c9a9" y="184.915731"/>
      </g>
     </g>
    </g>
    <g id="ytick_15">
     <g id="line2d_58">
      <g>
       <use style="stroke:#000000;stroke-width:0.6;" x="54.885" xlink:href="#m4cd9a4c9a9" y="182.591727"/>
      </g>
     </g>
    </g>
    <g id="ytick_16">
     <g id="line2d_59">
      <g>
       <use style="stroke:#000000;stroke-width:0.6;" x="54.885" xlink:href="#m4cd9a4c9a9" y="180.578584"/>
      </g>
     </g>
    </g>
    <g id="ytick_17">
     <g id="line2d_60">
      <g>
       <use style="stroke:#000000;stroke-width:0.6;" x="54.885" xlink:href="#m4cd9a4c9a9" y="178.802866"/>
      </g>
     </g>
    </g>
    <g id="ytick_18">
     <g id="line2d_61">
      <g>
       <use style="stroke:#000000;stroke-width:0.6;" x="54.885" xlink:href="#m4cd9a4c9a9" y="166.764421"/>
      </g>
     </g>
    </g>
    <g id="ytick_19">
     <g id="line2d_62">
      <g>
       <use style="stroke:#000000;stroke-width:0.6;" x="54.885" xlink:href="#m4cd9a4c9a9" y="160.651556"/>
      </g>
     </g>
    </g>
    <g id="ytick_20">
     <g id="line2d_63">
      <g>
       <use style="stroke:#000000;stroke-width:0.6;" x="54.885" xlink:href="#m4cd9a4c9a9" y="156.31441"/>
      </g>
     </g>
    </g>
    <g id="ytick_21">
     <g id="line2d_64">
      <g>
       <use style="stroke:#000000;stroke-width:0.6;" x="54.885" xlink:href="#m4cd9a4c9a9" y="152.950258"/>
      </g>
     </g>
    </g>
    <g id="ytick_22">
     <g id="line2d_65">
      <g>
       <use style="stroke:#000000;stroke-width:0.6;" x="54.885" xlink:href="#m4cd9a4c9a9" y="150.201545"/>
      </g>
     </g>
    </g>
    <g id="ytick_23">
     <g id="line2d_66">
      <g>
       <use style="stroke:#000000;stroke-width:0.6;" x="54.885" xlink:href="#m4cd9a4c9a9" y="147.877542"/>
      </g>
     </g>
    </g>
    <g id="ytick_24">
     <g id="line2d_67">
      <g>
       <use style="stroke:#000000;stroke-width:0.6;" x="54.885" xlink:href="#m4cd9a4c9a9" y="145.864399"/>
      </g>
     </g>
    </g>
    <g id="ytick_25">
     <g id="line2d_68">
      <g>
       <use style="stroke:#000000;stroke-width:0.6;" x="54.885" xlink:href="#m4cd9a4c9a9" y="144.088681"/>
      </g>
     </g>
    </g>
    <g id="ytick_26">
     <g id="line2d_69">
      <g>
       <use style="stroke:#000000;stroke-width:0.6;" x="54.885" xlink:href="#m4cd9a4c9a9" y="132.050236"/>
      </g>
     </g>
    </g>
    <g id="ytick_27">
     <g id="line2d_70">
      <g>
       <use style="stroke:#000000;stroke-width:0.6;" x="54.885" xlink:href="#m4cd9a4c9a9" y="125.937371"/>
      </g>
     </g>
    </g>
    <g id="ytick_28">
     <g id="line2d_71">
      <g>
       <use style="stroke:#000000;stroke-width:0.6;" x="54.885" xlink:href="#m4cd9a4c9a9" y="121.600225"/>
      </g>
     </g>
    </g>
    <g id="ytick_29">
     <g id="line2d_72">
      <g>
       <use style="stroke:#000000;stroke-width:0.6;" x="54.885" xlink:href="#m4cd9a4c9a9" y="118.236073"/>
      </g>
     </g>
    </g>
    <g id="ytick_30">
     <g id="line2d_73">
      <g>
       <use style="stroke:#000000;stroke-width:0.6;" x="54.885" xlink:href="#m4cd9a4c9a9" y="115.48736"/>
      </g>
     </g>
    </g>
    <g id="ytick_31">
     <g id="line2d_74">
      <g>
       <use style="stroke:#000000;stroke-width:0.6;" x="54.885" xlink:href="#m4cd9a4c9a9" y="113.163357"/>
      </g>
     </g>
    </g>
    <g id="ytick_32">
     <g id="line2d_75">
      <g>
       <use style="stroke:#000000;stroke-width:0.6;" x="54.885" xlink:href="#m4cd9a4c9a9" y="111.150214"/>
      </g>
     </g>
    </g>
    <g id="ytick_33">
     <g id="line2d_76">
      <g>
       <use style="stroke:#000000;stroke-width:0.6;" x="54.885" xlink:href="#m4cd9a4c9a9" y="109.374496"/>
      </g>
     </g>
    </g>
    <g id="ytick_34">
     <g id="line2d_77">
      <g>
       <use style="stroke:#000000;stroke-width:0.6;" x="54.885" xlink:href="#m4cd9a4c9a9" y="97.33605"/>
      </g>
     </g>
    </g>
    <g id="ytick_35">
     <g id="line2d_78">
      <g>
       <use style="stroke:#000000;stroke-width:0.6;" x="54.885" xlink:href="#m4cd9a4c9a9" y="91.223186"/>
      </g>
     </g>
    </g>
    <g id="ytick_36">
     <g id="line2d_79">
      <g>
       <use style="stroke:#000000;stroke-width:0.6;" x="54.885" xlink:href="#m4cd9a4c9a9" y="86.886039"/>
      </g>
     </g>
    </g>
    <g id="ytick_37">
     <g id="line2d_80">
      <g>
       <use style="stroke:#000000;stroke-width:0.6;" x="54.885" xlink:href="#m4cd9a4c9a9" y="83.521887"/>
      </g>
     </g>
    </g>
    <g id="ytick_38">
     <g id="line2d_81">
      <g>
       <use style="stroke:#000000;stroke-width:0.6;" x="54.885" xlink:href="#m4cd9a4c9a9" y="80.773175"/>
      </g>
     </g>
    </g>
    <g id="ytick_39">
     <g id="line2d_82">
      <g>
       <use style="stroke:#000000;stroke-width:0.6;" x="54.885" xlink:href="#m4cd9a4c9a9" y="78.449172"/>
      </g>
     </g>
    </g>
    <g id="ytick_40">
     <g id="line2d_83">
      <g>
       <use style="stroke:#000000;stroke-width:0.6;" x="54.885" xlink:href="#m4cd9a4c9a9" y="76.436028"/>
      </g>
     </g>
    </g>
    <g id="ytick_41">
     <g id="line2d_84">
      <g>
       <use style="stroke:#000000;stroke-width:0.6;" x="54.885" xlink:href="#m4cd9a4c9a9" y="74.66031"/>
      </g>
     </g>
    </g>
    <g id="ytick_42">
     <g id="line2d_85">
      <g>
       <use style="stroke:#000000;stroke-width:0.6;" x="54.885" xlink:href="#m4cd9a4c9a9" y="62.621865"/>
      </g>
     </g>
    </g>
    <g id="ytick_43">
     <g id="line2d_86">
      <g>
       <use style="stroke:#000000;stroke-width:0.6;" x="54.885" xlink:href="#m4cd9a4c9a9" y="56.509001"/>
      </g>
     </g>
    </g>
    <g id="ytick_44">
     <g id="line2d_87">
      <g>
       <use style="stroke:#000000;stroke-width:0.6;" x="54.885" xlink:href="#m4cd9a4c9a9" y="52.171854"/>
      </g>
     </g>
    </g>
    <g id="ytick_45">
     <g id="line2d_88">
      <g>
       <use style="stroke:#000000;stroke-width:0.6;" x="54.885" xlink:href="#m4cd9a4c9a9" y="48.807702"/>
      </g>
     </g>
    </g>
    <g id="ytick_46">
     <g id="line2d_89">
      <g>
       <use style="stroke:#000000;stroke-width:0.6;" x="54.885" xlink:href="#m4cd9a4c9a9" y="46.05899"/>
      </g>
     </g>
    </g>
    <g id="text_26">
     <!-- Artworks Acquired -->
     <defs>
      <path d="M 4.203125 54.6875 
L 13.1875 54.6875 
L 24.421875 12.015625 
L 35.59375 54.6875 
L 46.1875 54.6875 
L 57.421875 12.015625 
L 68.609375 54.6875 
L 77.59375 54.6875 
L 63.28125 0 
L 52.6875 0 
L 40.921875 44.828125 
L 29.109375 0 
L 18.5 0 
z
" id="DejaVuSans-119"/>
      <path d="M 9.078125 75.984375 
L 18.109375 75.984375 
L 18.109375 31.109375 
L 44.921875 54.6875 
L 56.390625 54.6875 
L 27.390625 29.109375 
L 57.625 0 
L 45.90625 0 
L 18.109375 26.703125 
L 18.109375 0 
L 9.078125 0 
z
" id="DejaVuSans-107"/>
      <path d="M 45.40625 46.390625 
L 45.40625 75.984375 
L 54.390625 75.984375 
L 54.390625 0 
L 45.40625 0 
L 45.40625 8.203125 
Q 42.578125 3.328125 38.25 0.953125 
Q 33.9375 -1.421875 27.875 -1.421875 
Q 17.96875 -1.421875 11.734375 6.484375 
Q 5.515625 14.40625 5.515625 27.296875 
Q 5.515625 40.1875 11.734375 48.09375 
Q 17.96875 56 27.875 56 
Q 33.9375 56 38.25 53.625 
Q 42.578125 51.265625 45.40625 46.390625 
z
M 14.796875 27.296875 
Q 14.796875 17.390625 18.875 11.75 
Q 22.953125 6.109375 30.078125 6.109375 
Q 37.203125 6.109375 41.296875 11.75 
Q 45.40625 17.390625 45.40625 27.296875 
Q 45.40625 37.203125 41.296875 42.84375 
Q 37.203125 48.484375 30.078125 48.484375 
Q 22.953125 48.484375 18.875 42.84375 
Q 14.796875 37.203125 14.796875 27.296875 
z
" id="DejaVuSans-100"/>
     </defs>
     <g style="fill:#8b0000;" transform="translate(22.9575 205.953145)rotate(-90)scale(0.16 -0.16)">
      <use xlink:href="#DejaVuSans-65"/>
      <use x="68.408203" xlink:href="#DejaVuSans-114"/>
      <use x="109.521484" xlink:href="#DejaVuSans-116"/>
      <use x="148.730469" xlink:href="#DejaVuSans-119"/>
      <use x="230.517578" xlink:href="#DejaVuSans-111"/>
      <use x="291.699219" xlink:href="#DejaVuSans-114"/>
      <use x="332.8125" xlink:href="#DejaVuSans-107"/>
      <use x="390.722656" xlink:href="#DejaVuSans-115"/>
      <use x="442.822266" xlink:href="#DejaVuSans-32"/>
      <use x="474.609375" xlink:href="#DejaVuSans-65"/>
      <use x="543.001953" xlink:href="#DejaVuSans-99"/>
      <use x="597.982422" xlink:href="#DejaVuSans-113"/>
      <use x="661.458984" xlink:href="#DejaVuSans-117"/>
      <use x="724.837891" xlink:href="#DejaVuSans-105"/>
      <use x="752.621094" xlink:href="#DejaVuSans-114"/>
      <use x="793.703125" xlink:href="#DejaVuSans-101"/>
      <use x="855.226562" xlink:href="#DejaVuSans-100"/>
     </g>
    </g>
   </g>
   <g id="line2d_90">
    <path clip-path="url(#p44d700ec0b)" d="M 54.885 211.928617 
L 56.777389 201.478606 
L 60.562167 191.028595 
L 62.454557 211.928617 
L 64.346946 195.365742 
L 68.131724 201.478606 
L 75.701281 211.928617 
L 77.59367 211.928617 
L 79.486059 195.365742 
L 81.378448 191.028595 
L 87.055615 201.478606 
L 88.948005 201.478606 
L 90.840394 211.928617 
L 94.625172 211.928617 
L 100.302339 136.58975 
L 104.087118 211.928617 
L 105.979507 211.928617 
L 111.656674 195.365742 
L 113.549063 169.214586 
L 115.441453 211.928617 
L 117.333842 52.987672 
L 119.226231 201.478606 
L 121.11862 191.028595 
L 123.011009 169.214586 
L 124.903398 201.478606 
L 126.795787 191.028595 
L 130.580566 211.928617 
L 132.472955 201.478606 
L 136.257733 201.478606 
L 138.150122 171.101567 
L 140.042511 177.214432 
L 141.934901 187.664443 
L 143.82729 211.928617 
L 145.719679 178.802866 
L 149.504457 211.928617 
L 151.396846 195.365742 
L 155.181625 195.365742 
L 157.074014 175.777519 
L 158.966403 171.101567 
L 160.858792 153.254837 
L 162.751181 184.915731 
L 164.64357 195.365742 
L 166.53596 184.915731 
L 168.428349 195.365742 
L 170.320738 178.802866 
L 172.213127 165.327508 
L 174.105516 178.802866 
L 175.997905 174.46572 
L 177.890294 106.907589 
L 179.782684 178.802866 
L 181.675073 180.578584 
L 183.567462 166.028852 
L 185.459851 172.141716 
L 187.35224 178.802866 
L 189.244629 145.864399 
L 191.137018 175.777519 
L 193.029408 157.489772 
L 194.921797 157.489772 
L 196.814186 151.513344 
L 198.706575 167.537728 
L 200.598964 147.039761 
L 202.491353 178.802866 
L 204.383742 174.46572 
L 206.276132 177.214432 
L 208.168521 166.764421 
L 210.06091 149.228551 
L 211.953299 169.214586 
L 213.845688 158.327553 
L 215.738077 139.379264 
L 217.630466 152.950258 
L 219.522856 144.77408 
L 221.415245 161.691705 
L 223.307634 145.677115 
L 225.200023 163.400269 
L 227.092412 163.400269 
L 228.984801 164.015709 
L 230.87719 157.489772 
L 234.661969 140.004921 
L 236.554358 138.896785 
L 238.446747 155.94214 
L 240.339136 164.015709 
L 242.231525 140.393171 
L 244.123914 156.696106 
L 246.016304 130.207661 
L 247.908693 130.141099 
L 249.801082 147.663692 
L 251.693471 130.274518 
L 253.58586 157.087717 
L 255.478249 153.254837 
L 257.370638 148.994807 
L 259.263028 155.224091 
L 261.155417 153.565698 
L 263.047806 152.950258 
L 264.940195 157.489772 
L 266.832584 156.696106 
L 268.724973 160.157211 
L 270.617362 156.31441 
L 272.509752 149.7072 
L 274.402141 146.054039 
L 276.29453 131.531594 
L 280.079308 152.071785 
L 281.971697 159.214643 
L 283.864086 156.31441 
L 285.756476 155.578841 
L 287.648865 138.77854 
L 289.541254 154.877497 
L 291.433643 156.31441 
L 293.326032 154.538692 
L 295.218421 156.31441 
L 297.11081 153.565698 
L 299.0032 157.087717 
L 300.895589 150.712651 
L 302.787978 155.578841 
L 304.680367 145.677115 
L 306.572756 157.489772 
L 308.465145 152.65171 
L 310.357534 148.994807 
L 312.249924 143.757323 
L 314.142313 145.677115 
L 316.034702 146.440629 
L 317.927091 143.757323 
L 319.81948 147.452833 
L 321.711869 145.12883 
L 323.604258 143.594336 
L 325.496648 144.77408 
L 327.389037 138.429269 
L 329.281426 144.599787 
L 331.173815 147.663692 
L 333.066204 134.149776 
L 334.958593 134.411977 
L 336.850983 127.03146 
L 338.743372 137.644458 
L 340.635761 139.136095 
L 342.52815 90.993772 
L 344.420539 115.312489 
L 346.312928 125.540607 
L 348.205317 123.917948 
L 350.097707 105.470676 
L 351.990096 118.357167 
L 353.882485 122.373532 
L 355.774874 115.56293 
L 357.667263 117.329181 
L 359.559652 129.238836 
L 361.452041 122.898324 
L 363.344431 107.846487 
L 365.23682 130.751005 
L 367.129209 106.308087 
L 369.021598 123.399518 
L 370.913987 128.446774 
L 372.806376 131.030202 
L 374.698765 127.979258 
L 376.591155 133.72266 
L 378.483544 127.24917 
L 380.375933 131.100816 
L 382.268322 113.445976 
L 384.160711 88.036974 
L 386.0531 122.816388 
L 387.945489 126.448477 
L 389.837879 129.052325 
L 391.730268 125.443026 
L 393.622657 125.011564 
L 395.515046 122.33391 
L 397.407435 114.443861 
L 399.299824 124.364021 
L 401.192213 129.364472 
L 403.084603 124.364021 
L 404.976992 111.397214 
L 406.869381 103.10609 
L 408.76177 121.904804 
L 410.654159 124.964377 
L 412.546548 117.819741 
L 414.438937 119.55884 
L 414.438937 119.55884 
" style="fill:none;stroke:#1f77b4;stroke-linecap:square;stroke-width:1.5;"/>
   </g>
   <g id="patch_3">
    <path d="M 54.885 219.875665 
L 54.885 45.040625 
" style="fill:none;stroke:#000000;stroke-linecap:square;stroke-linejoin:miter;stroke-width:0.8;"/>
   </g>
   <g id="patch_4">
    <path d="M 414.438937 219.875665 
L 414.438937 45.040625 
" style="fill:none;stroke:#000000;stroke-linecap:square;stroke-linejoin:miter;stroke-width:0.8;"/>
   </g>
   <g id="patch_5">
    <path d="M 54.885 219.875665 
L 414.438937 219.875665 
" style="fill:none;stroke:#000000;stroke-linecap:square;stroke-linejoin:miter;stroke-width:0.8;"/>
   </g>
   <g id="patch_6">
    <path d="M 54.885 45.040625 
L 414.438937 45.040625 
" style="fill:none;stroke:#000000;stroke-linecap:square;stroke-linejoin:miter;stroke-width:0.8;"/>
   </g>
   <g id="text_27">
    <!-- Tate Gallery Acquisitions -->
    <defs>
     <path d="M 22.59375 58.59375 
L 2.796875 58.59375 
L 2.796875 65.59375 
L 50.796875 65.59375 
L 50.796875 58.59375 
L 31 58.59375 
L 31 0 
L 22.59375 0 
z
" id="SourceSansPro-Regular-84"/>
     <path d="M 19.40625 -1.203125 
Q 13.296875 -1.203125 9.25 2.390625 
Q 5.203125 6 5.203125 12.59375 
Q 5.203125 20.59375 12.296875 24.84375 
Q 19.40625 29.09375 35 30.796875 
Q 35 33.09375 34.546875 35.296875 
Q 34.09375 37.5 33 39.203125 
Q 31.90625 40.90625 29.953125 41.953125 
Q 28 43 25 43 
Q 20.796875 43 17.09375 41.390625 
Q 13.40625 39.796875 10.5 37.796875 
L 7.296875 43.5 
Q 10.703125 45.703125 15.59375 47.75 
Q 20.5 49.796875 26.40625 49.796875 
Q 35.296875 49.796875 39.296875 44.34375 
Q 43.296875 38.90625 43.296875 29.796875 
L 43.296875 0 
L 36.5 0 
L 35.796875 5.796875 
L 35.5 5.796875 
Q 32 2.90625 28 0.84375 
Q 24 -1.203125 19.40625 -1.203125 
z
M 21.796875 5.40625 
Q 25.296875 5.40625 28.390625 7.046875 
Q 31.5 8.703125 35 11.90625 
L 35 25.40625 
Q 28.90625 24.59375 24.75 23.5 
Q 20.59375 22.40625 18.046875 20.90625 
Q 15.5 19.40625 14.34375 17.453125 
Q 13.203125 15.5 13.203125 13.203125 
Q 13.203125 9 15.703125 7.203125 
Q 18.203125 5.40625 21.796875 5.40625 
z
" id="SourceSansPro-Regular-97"/>
     <path d="M 23.5 -1.203125 
Q 19.59375 -1.203125 16.9375 0 
Q 14.296875 1.203125 12.640625 3.296875 
Q 11 5.40625 10.296875 8.40625 
Q 9.59375 11.40625 9.59375 15 
L 9.59375 41.90625 
L 2.40625 41.90625 
L 2.40625 48.09375 
L 10 48.59375 
L 11 62.203125 
L 17.90625 62.203125 
L 17.90625 48.59375 
L 31 48.59375 
L 31 41.90625 
L 17.90625 41.90625 
L 17.90625 14.90625 
Q 17.90625 10.40625 19.546875 7.953125 
Q 21.203125 5.5 25.40625 5.5 
Q 26.703125 5.5 28.203125 5.890625 
Q 29.703125 6.296875 30.90625 6.796875 
L 32.5 0.59375 
Q 30.5 -0.09375 28.140625 -0.640625 
Q 25.796875 -1.203125 23.5 -1.203125 
z
" id="SourceSansPro-Regular-116"/>
     <path d="M 27.90625 -1.203125 
Q 23 -1.203125 18.75 0.546875 
Q 14.5 2.296875 11.34375 5.546875 
Q 8.203125 8.796875 6.390625 13.5 
Q 4.59375 18.203125 4.59375 24.203125 
Q 4.59375 30.203125 6.4375 34.953125 
Q 8.296875 39.703125 11.34375 43 
Q 14.40625 46.296875 18.296875 48.046875 
Q 22.203125 49.796875 26.40625 49.796875 
Q 31 49.796875 34.640625 48.1875 
Q 38.296875 46.59375 40.75 43.59375 
Q 43.203125 40.59375 44.5 36.390625 
Q 45.796875 32.203125 45.796875 27 
Q 45.796875 25.703125 45.75 24.453125 
Q 45.703125 23.203125 45.5 22.296875 
L 12.703125 22.296875 
Q 13.203125 14.5 17.546875 9.953125 
Q 21.90625 5.40625 28.90625 5.40625 
Q 32.40625 5.40625 35.34375 6.453125 
Q 38.296875 7.5 41 9.203125 
L 43.90625 3.796875 
Q 40.703125 1.796875 36.796875 0.296875 
Q 32.90625 -1.203125 27.90625 -1.203125 
z
M 38.59375 28.203125 
Q 38.59375 35.59375 35.4375 39.4375 
Q 32.296875 43.296875 26.59375 43.296875 
Q 24 43.296875 21.640625 42.296875 
Q 19.296875 41.296875 17.390625 39.34375 
Q 15.5 37.40625 14.25 34.59375 
Q 13 31.796875 12.59375 28.203125 
z
" id="SourceSansPro-Regular-101"/>
     <path id="SourceSansPro-Regular-32"/>
     <path d="M 34.796875 -1.203125 
Q 28.296875 -1.203125 22.84375 1.09375 
Q 17.40625 3.40625 13.5 7.75 
Q 9.59375 12.09375 7.390625 18.4375 
Q 5.203125 24.796875 5.203125 32.796875 
Q 5.203125 40.703125 7.453125 47 
Q 9.703125 53.296875 13.703125 57.6875 
Q 17.703125 62.09375 23.25 64.4375 
Q 28.796875 66.796875 35.296875 66.796875 
Q 38.703125 66.796875 41.546875 66.09375 
Q 44.40625 65.40625 46.75 64.25 
Q 49.09375 63.09375 50.9375 61.640625 
Q 52.796875 60.203125 54.203125 58.703125 
L 49.59375 53.296875 
Q 47.09375 55.90625 43.796875 57.703125 
Q 40.5 59.5 35.5 59.5 
Q 30.5 59.5 26.5 57.640625 
Q 22.5 55.796875 19.703125 52.34375 
Q 16.90625 48.90625 15.34375 44 
Q 13.796875 39.09375 13.796875 33 
Q 13.796875 26.796875 15.25 21.84375 
Q 16.703125 16.90625 19.453125 13.40625 
Q 22.203125 9.90625 26.25 8 
Q 30.296875 6.09375 35.59375 6.09375 
Q 39.09375 6.09375 42.25 7.140625 
Q 45.40625 8.203125 47.40625 10 
L 47.40625 27.09375 
L 33.5 27.09375 
L 33.5 34 
L 55 34 
L 55 6.40625 
Q 51.796875 3.09375 46.59375 0.9375 
Q 41.40625 -1.203125 34.796875 -1.203125 
z
" id="SourceSansPro-Regular-71"/>
     <path d="M 16.90625 -1.203125 
Q 12.203125 -1.203125 10.203125 1.59375 
Q 8.203125 4.40625 8.203125 9.796875 
L 8.203125 71.203125 
L 16.40625 71.203125 
L 16.40625 9.203125 
Q 16.40625 7.203125 17.09375 6.390625 
Q 17.796875 5.59375 18.703125 5.59375 
Q 19.09375 5.59375 19.4375 5.59375 
Q 19.796875 5.59375 20.5 5.796875 
L 21.59375 -0.40625 
Q 20.796875 -0.796875 19.6875 -1 
Q 18.59375 -1.203125 16.90625 -1.203125 
z
" id="SourceSansPro-Regular-108"/>
     <path d="M 8.203125 48.59375 
L 15 48.59375 
L 15.703125 39.796875 
L 16 39.796875 
Q 18.5 44.40625 22.046875 47.09375 
Q 25.59375 49.796875 29.796875 49.796875 
Q 32.703125 49.796875 35 48.796875 
L 33.40625 41.59375 
Q 32.203125 42 31.203125 42.203125 
Q 30.203125 42.40625 28.703125 42.40625 
Q 25.59375 42.40625 22.25 39.90625 
Q 18.90625 37.40625 16.40625 31.203125 
L 16.40625 0 
L 8.203125 0 
z
" id="SourceSansPro-Regular-114"/>
     <path d="M 9 -20.90625 
Q 7.296875 -20.90625 5.890625 -20.65625 
Q 4.5 -20.40625 3.296875 -19.90625 
L 4.90625 -13.40625 
Q 5.703125 -13.59375 6.703125 -13.84375 
Q 7.703125 -14.09375 8.59375 -14.09375 
Q 12.796875 -14.09375 15.4375 -11.140625 
Q 18.09375 -8.203125 19.59375 -3.703125 
L 20.703125 -0.09375 
L 1.203125 48.59375 
L 9.703125 48.59375 
L 19.59375 21.703125 
Q 20.703125 18.5 21.953125 14.953125 
Q 23.203125 11.40625 24.296875 8 
L 24.703125 8 
Q 25.796875 11.296875 26.796875 14.890625 
Q 27.796875 18.5 28.796875 21.703125 
L 37.5 48.59375 
L 45.5 48.59375 
L 27.203125 -4 
Q 25.90625 -7.59375 24.296875 -10.6875 
Q 22.703125 -13.796875 20.5 -16.046875 
Q 18.296875 -18.296875 15.5 -19.59375 
Q 12.703125 -20.90625 9 -20.90625 
z
" id="SourceSansPro-Regular-121"/>
     <path d="M 36.90625 26.703125 
L 33.796875 36.703125 
Q 32 42.203125 30.390625 47.640625 
Q 28.796875 53.09375 27.203125 58.796875 
L 26.796875 58.796875 
Q 25.296875 53.09375 23.6875 47.640625 
Q 22.09375 42.203125 20.296875 36.703125 
L 17.203125 26.703125 
z
M 39 20 
L 15.09375 20 
L 8.796875 0 
L 0.296875 0 
L 22.5 65.59375 
L 31.90625 65.59375 
L 54.09375 0 
L 45.203125 0 
z
" id="SourceSansPro-Regular-65"/>
     <path d="M 27.40625 -1.203125 
Q 22.59375 -1.203125 18.390625 0.5 
Q 14.203125 2.203125 11.140625 5.453125 
Q 8.09375 8.703125 6.34375 13.453125 
Q 4.59375 18.203125 4.59375 24.203125 
Q 4.59375 30.296875 6.5 35.046875 
Q 8.40625 39.796875 11.59375 43.09375 
Q 14.796875 46.40625 19.046875 48.09375 
Q 23.296875 49.796875 28 49.796875 
Q 32.796875 49.796875 36.1875 48.09375 
Q 39.59375 46.40625 42.203125 44.09375 
L 38 38.703125 
Q 35.90625 40.59375 33.546875 41.796875 
Q 31.203125 43 28.296875 43 
Q 25 43 22.203125 41.640625 
Q 19.40625 40.296875 17.40625 37.796875 
Q 15.40625 35.296875 14.25 31.84375 
Q 13.09375 28.40625 13.09375 24.203125 
Q 13.09375 20 14.1875 16.59375 
Q 15.296875 13.203125 17.25 10.75 
Q 19.203125 8.296875 22 6.9375 
Q 24.796875 5.59375 28.09375 5.59375 
Q 31.5 5.59375 34.34375 7.046875 
Q 37.203125 8.5 39.5 10.5 
L 43.09375 5 
Q 39.796875 2.09375 35.796875 0.4375 
Q 31.796875 -1.203125 27.40625 -1.203125 
z
" id="SourceSansPro-Regular-99"/>
     <path d="M 39 -3.203125 
L 39.40625 5.59375 
Q 36.5 2.703125 32.75 0.75 
Q 29 -1.203125 24.796875 -1.203125 
Q 15.59375 -1.203125 10.140625 5.390625 
Q 4.703125 12 4.703125 24.203125 
Q 4.703125 30.09375 6.453125 34.84375 
Q 8.203125 39.59375 11.09375 42.890625 
Q 14 46.203125 17.796875 48 
Q 21.59375 49.796875 25.796875 49.796875 
Q 30 49.796875 33.203125 48.34375 
Q 36.40625 46.90625 39.703125 44 
L 39.90625 44 
L 40.703125 48.59375 
L 47.296875 48.59375 
L 47.296875 -20.5 
L 39 -20.5 
z
M 26.59375 5.703125 
Q 30 5.703125 33 7.34375 
Q 36 9 39 12.40625 
L 39 37.796875 
Q 35.90625 40.59375 33.046875 41.75 
Q 30.203125 42.90625 27.203125 42.90625 
Q 24.296875 42.90625 21.75 41.546875 
Q 19.203125 40.203125 17.296875 37.75 
Q 15.40625 35.296875 14.296875 31.890625 
Q 13.203125 28.5 13.203125 24.296875 
Q 13.203125 15.5 16.703125 10.59375 
Q 20.203125 5.703125 26.59375 5.703125 
z
" id="SourceSansPro-Regular-113"/>
     <path d="M 22.40625 -1.203125 
Q 14.59375 -1.203125 11.046875 3.59375 
Q 7.5 8.40625 7.5 17.796875 
L 7.5 48.59375 
L 15.796875 48.59375 
L 15.796875 18.90625 
Q 15.796875 12 17.9375 8.953125 
Q 20.09375 5.90625 24.90625 5.90625 
Q 28.703125 5.90625 31.59375 7.84375 
Q 34.5 9.796875 38 14.09375 
L 38 48.59375 
L 46.203125 48.59375 
L 46.203125 0 
L 39.40625 0 
L 38.703125 7.59375 
L 38.40625 7.59375 
Q 35 3.59375 31.25 1.1875 
Q 27.5 -1.203125 22.40625 -1.203125 
z
" id="SourceSansPro-Regular-117"/>
     <path d="M 8.203125 48.59375 
L 16.40625 48.59375 
L 16.40625 0 
L 8.203125 0 
z
M 12.40625 58.59375 
Q 10 58.59375 8.34375 60.09375 
Q 6.703125 61.59375 6.703125 63.90625 
Q 6.703125 66.296875 8.34375 67.75 
Q 10 69.203125 12.40625 69.203125 
Q 14.796875 69.203125 16.4375 67.75 
Q 18.09375 66.296875 18.09375 63.90625 
Q 18.09375 61.59375 16.4375 60.09375 
Q 14.796875 58.59375 12.40625 58.59375 
z
" id="SourceSansPro-Regular-105"/>
     <path d="M 20.90625 -1.203125 
Q 15.703125 -1.203125 11 0.6875 
Q 6.296875 2.59375 2.796875 5.5 
L 6.90625 11 
Q 10.09375 8.40625 13.4375 6.796875 
Q 16.796875 5.203125 21.203125 5.203125 
Q 26 5.203125 28.390625 7.390625 
Q 30.796875 9.59375 30.796875 12.796875 
Q 30.796875 14.703125 29.796875 16.09375 
Q 28.796875 17.5 27.25 18.546875 
Q 25.703125 19.59375 23.703125 20.390625 
Q 21.703125 21.203125 19.703125 22 
Q 17.09375 22.90625 14.5 24.046875 
Q 11.90625 25.203125 9.84375 26.84375 
Q 7.796875 28.5 6.5 30.703125 
Q 5.203125 32.90625 5.203125 36 
Q 5.203125 38.90625 6.34375 41.453125 
Q 7.5 44 9.640625 45.84375 
Q 11.796875 47.703125 14.890625 48.75 
Q 18 49.796875 21.90625 49.796875 
Q 26.5 49.796875 30.34375 48.1875 
Q 34.203125 46.59375 37 44.296875 
L 33.09375 39.09375 
Q 30.59375 41 27.890625 42.203125 
Q 25.203125 43.40625 22 43.40625 
Q 17.40625 43.40625 15.25 41.296875 
Q 13.09375 39.203125 13.09375 36.40625 
Q 13.09375 34.703125 14 33.453125 
Q 14.90625 32.203125 16.40625 31.25 
Q 17.90625 30.296875 19.84375 29.546875 
Q 21.796875 28.796875 23.90625 28 
Q 26.5 27 29.140625 25.890625 
Q 31.796875 24.796875 33.890625 23.140625 
Q 36 21.5 37.34375 19.09375 
Q 38.703125 16.703125 38.703125 13.296875 
Q 38.703125 10.296875 37.546875 7.6875 
Q 36.40625 5.09375 34.15625 3.09375 
Q 31.90625 1.09375 28.546875 -0.046875 
Q 25.203125 -1.203125 20.90625 -1.203125 
z
" id="SourceSansPro-Regular-115"/>
     <path d="M 27.09375 -1.203125 
Q 22.59375 -1.203125 18.546875 0.5 
Q 14.5 2.203125 11.390625 5.453125 
Q 8.296875 8.703125 6.4375 13.453125 
Q 4.59375 18.203125 4.59375 24.203125 
Q 4.59375 30.296875 6.4375 35.046875 
Q 8.296875 39.796875 11.390625 43.09375 
Q 14.5 46.40625 18.546875 48.09375 
Q 22.59375 49.796875 27.09375 49.796875 
Q 31.59375 49.796875 35.640625 48.09375 
Q 39.703125 46.40625 42.796875 43.09375 
Q 45.90625 39.796875 47.75 35.046875 
Q 49.59375 30.296875 49.59375 24.203125 
Q 49.59375 18.203125 47.75 13.453125 
Q 45.90625 8.703125 42.796875 5.453125 
Q 39.703125 2.203125 35.640625 0.5 
Q 31.59375 -1.203125 27.09375 -1.203125 
z
M 27.09375 5.59375 
Q 30.203125 5.59375 32.796875 6.9375 
Q 35.40625 8.296875 37.25 10.75 
Q 39.09375 13.203125 40.09375 16.59375 
Q 41.09375 20 41.09375 24.203125 
Q 41.09375 28.40625 40.09375 31.84375 
Q 39.09375 35.296875 37.25 37.796875 
Q 35.40625 40.296875 32.796875 41.640625 
Q 30.203125 43 27.09375 43 
Q 24 43 21.390625 41.640625 
Q 18.796875 40.296875 16.9375 37.796875 
Q 15.09375 35.296875 14.09375 31.84375 
Q 13.09375 28.40625 13.09375 24.203125 
Q 13.09375 20 14.09375 16.59375 
Q 15.09375 13.203125 16.9375 10.75 
Q 18.796875 8.296875 21.390625 6.9375 
Q 24 5.59375 27.09375 5.59375 
z
" id="SourceSansPro-Regular-111"/>
     <path d="M 8.203125 48.59375 
L 15 48.59375 
L 15.703125 41.59375 
L 16 41.59375 
Q 19.5 45.09375 23.34375 47.4375 
Q 27.203125 49.796875 32.296875 49.796875 
Q 40 49.796875 43.546875 45 
Q 47.09375 40.203125 47.09375 30.796875 
L 47.09375 0 
L 38.90625 0 
L 38.90625 29.703125 
Q 38.90625 36.59375 36.703125 39.640625 
Q 34.5 42.703125 29.703125 42.703125 
Q 25.90625 42.703125 23 40.796875 
Q 20.09375 38.90625 16.40625 35.203125 
L 16.40625 0 
L 8.203125 0 
z
" id="SourceSansPro-Regular-110"/>
    </defs>
    <g style="fill:#00008b;" transform="translate(131.491656 25.040625)scale(0.2 -0.2)">
     <use xlink:href="#SourceSansPro-Regular-84"/>
     <use x="53.599991" xlink:href="#SourceSansPro-Regular-97"/>
     <use x="103.999985" xlink:href="#SourceSansPro-Regular-116"/>
     <use x="137.799973" xlink:href="#SourceSansPro-Regular-101"/>
     <use x="187.399963" xlink:href="#SourceSansPro-Regular-32"/>
     <use x="207.399948" xlink:href="#SourceSansPro-Regular-71"/>
     <use x="269.099945" xlink:href="#SourceSansPro-Regular-97"/>
     <use x="319.499939" xlink:href="#SourceSansPro-Regular-108"/>
     <use x="344.999924" xlink:href="#SourceSansPro-Regular-108"/>
     <use x="370.499908" xlink:href="#SourceSansPro-Regular-101"/>
     <use x="420.099899" xlink:href="#SourceSansPro-Regular-114"/>
     <use x="454.799896" xlink:href="#SourceSansPro-Regular-121"/>
     <use x="501.499893" xlink:href="#SourceSansPro-Regular-32"/>
     <use x="521.499878" xlink:href="#SourceSansPro-Regular-65"/>
     <use x="575.899872" xlink:href="#SourceSansPro-Regular-99"/>
     <use x="621.499863" xlink:href="#SourceSansPro-Regular-113"/>
     <use x="676.999847" xlink:href="#SourceSansPro-Regular-117"/>
     <use x="731.399841" xlink:href="#SourceSansPro-Regular-105"/>
     <use x="755.999832" xlink:href="#SourceSansPro-Regular-115"/>
     <use x="797.899826" xlink:href="#SourceSansPro-Regular-105"/>
     <use x="822.499817" xlink:href="#SourceSansPro-Regular-116"/>
     <use x="856.299805" xlink:href="#SourceSansPro-Regular-105"/>
     <use x="880.899796" xlink:href="#SourceSansPro-Regular-111"/>
     <use x="935.099792" xlink:href="#SourceSansPro-Regular-110"/>
     <use x="989.799789" xlink:href="#SourceSansPro-Regular-115"/>
    </g>
   </g>
  </g>
 </g>
 <defs>
  <clipPath id="p44d700ec0b">
   <rect height="174.83504" width="359.553937" x="54.885" y="45.040625"/>
  </clipPath>
 </defs>
</svg>
